<?xml version="1.0" encoding="UTF-8"?>
<svg id="Layer_2" xmlns="http://www.w3.org/2000/svg" xmlns:xlink="http://www.w3.org/1999/xlink" version="1.1" viewBox="0 0 1053.4 638.3">
  <!-- Generator: Adobe Illustrator 29.7.1, SVG Export Plug-In . SVG Version: 2.1.1 Build 8)  -->
  <defs>
    <style>
      .st0 {
        fill: none;
      }

      .st1 {
        fill: #b8afdc;
      }

      .st2 {
        fill: #0a1e35;
        stroke: #0a1e35;
        stroke-miterlimit: 10;
      }

      .st3 {
        fill: #f6caf8;
      }

      .st4 {
        fill: #285ea4;
      }

      .st5 {
        fill: #fbe5f2;
      }

      .st6 {
        clip-path: url(#clippath);
      }
    </style>
    <clipPath id="clippath">
      <rect class="st0" width="1052.7" height="638.3"/>
    </clipPath>
  </defs>
  <g id="Layer_1-2">
    <g class="st6">
      <g>
        <rect class="st5" width="1053.4" height="638.3"/>
        <ellipse class="st3" cx="201.8" cy="574.9" rx="6.9" ry="6.8"/>
        <ellipse class="st3" cx="18" cy="431.4" rx="6.9" ry="6.8"/>
        <path class="st5" d="M28.9,626.6c.2-.4.2-.6.3-.7,2.8-2.7,5.7-5.4,8.5-8.1.8-.8,1.2-.7,2.1-.1.3.2.6.5.9.8,1.3,1.2,2.7,1.1,4.1.4.9-.4,1.7-1,2.5-1.6,1.9-1.5,3.8-3.1,5.6-4.8,10.5-9.5,20.9-19,31.3-28.6,3.3-3.1,6.4-6.3,9.6-9.5,2.5-2.5,4.1-5.5,4.5-9.1,0-.5.2-1,.2-1.5.1-.9.6-1.7,1.2-2.3,1.9-1.7,3.9-3.3,5.8-5,1.6-1.5,3.6-2,5.7-1.8,3.1.3,6.3.3,9.4,0,1.9-.2,3.1.4,4.1,2.1,4.1,6.8,8.3,13.5,12.5,20.3,2.4,3.8,4.8,7.7,7.2,11.5,2.5,4,4.9,8.1,7.4,12,.7,1.1.9,2.1.5,3.3-.3,1.1-.7,2.3-1,3.4-.3,1-.2,1.9.3,2.8.7,1.4,2.7,2.4,4.2,2.2,2-.3,3.1-1.8,2.8-3.7-.2-1.1-.4-2.1-.8-3.1-1.6-5.2-3.9-10.1-6.9-14.6-1.8-2.6-3.6-5.2-5.3-7.8-5.1-8.1-10.4-16-15.1-24.3-.9-1.6-2.1-3.1-2.7-4.9-1-2.9-3.1-4-5.8-4.7-1.3-.3-2.5-.5-3.8-.1-2.1.6-4.2,1.1-6.3,1.6-1.7.4-3.4.9-5.2,1.2-1.1.2-2.3.2-3.5.3-.9,0-1.4-.6-1.3-1.5,0-.6.2-1.2.3-1.7.9-3.4,1.9-6.8,2.8-10.2,1.3-4.6,1.2-4.6-.2-9.1-.3-.9-.8-1.5-1.6-1.9-2.2-1.2-4.3-2.3-6.4-3.6-10.7-6.8-21.2-13.8-31.4-21.3-4.7-3.5-9.9-6-15.4-7.9-1-.3-2.1-.6-3.1-.8-1.1-.2-1.9.3-2.5,1.1-1.2,1.6-.8,3.2.1,4.7.8,1.4,2.1,2,3.8,1.6.9-.2,1.7-.5,2.5-.7,1.9-.5,3.7-.7,5.2.9,13.7,9.1,27.5,18.2,41.2,27.3.5.3,1,.7,1.5,1,1.3.7,1.8,1.8,1.6,3.2,0,.5,0,1-.1,1.5-.4,2.5-.4,5.1-.3,7.6,0,.7,0,1.4,0,2.1,0,1.5-.4,2.9-1.5,4-1.8,1.9-3.6,3.9-5.4,5.9-.9,1-2,1.5-3.4,1.5-4.2.2-7.7,2.1-10.7,4.9-.2.2-.4.4-.6.6-3.5,3.4-7.1,6.8-10.5,10.3-9.5,9.8-19,19.6-28.5,29.4-1.5,1.6-2.9,3.2-4.3,4.8-.7.8-1.3,1.7-1.6,2.8-.3,1.1-.2,2.1.6,3,.4.4.8.9,1.1,1.4.1.3.1.8,0,1.1-.2.4-.6.8-.9,1.1-2.5,2.5-5,5-7.5,7.4-.1.1-.3.3-.4.4-.4,0-.8.1-1.1,0-.6-.4-1-.9-1.6-1.3-1.6-1.3-3.4-1.5-5.3-1-1.7.5-3.3,1.4-4.3,3-.9,1.5-1.9,3-2.6,4.6-1.8,4.2-3.1,8.5-3.9,12.9-.5,2.9,0,3.4,2.9,2.9,4.5-.8,8.8-1.9,13-3.5,1.7-.7,3.4-1.6,4.9-2.7,3.3-2.2,4-6.3,1.7-9.5-.4-.6-.8-1.3-1.2-1.8h0Z"/>
        <path class="st5" d="M28.9,626.7c.2-.4.2-.6.3-.7,2.8-2.7,5.7-5.4,8.5-8.1.8-.8,1.2-.7,2.1-.1.3.2.6.5.9.8,1.3,1.2,2.7,1.1,4.1.4.9-.4,1.7-1,2.5-1.6,1.9-1.5,3.8-3.1,5.6-4.8,10.5-9.5,20.9-19,31.3-28.6,3.3-3.1,6.4-6.3,9.6-9.5,2.5-2.5,4.1-5.5,4.5-9.1,0-.5.2-1,.2-1.5.1-.9.6-1.7,1.2-2.3,1.9-1.7,3.9-3.3,5.8-5,1.6-1.5,3.6-2,5.7-1.8,3.1.3,6.3.3,9.4,0,1.9-.2,3.1.4,4.1,2.1,4.1,6.8,8.3,13.5,12.5,20.3,2.4,3.8,4.8,7.7,7.2,11.5,2.5,4,4.9,8.1,7.4,12,.7,1.1.9,2.1.5,3.3-.3,1.1-.7,2.3-1,3.4-.3,1-.2,1.9.3,2.8.7,1.4,2.7,2.4,4.2,2.2,2-.3,3.1-1.8,2.8-3.7-.2-1.1-.4-2.1-.8-3.1-1.6-5.2-3.9-10.1-6.9-14.6-1.8-2.6-3.6-5.2-5.3-7.8-5.1-8.1-10.4-16-15.1-24.3-.9-1.6-2.1-3.1-2.7-4.9-1-2.9-3.1-4-5.8-4.7-1.3-.3-2.5-.5-3.8-.1-2.1.6-4.2,1.1-6.3,1.6-1.7.4-3.4.9-5.2,1.2-1.1.2-2.3.2-3.5.3-.9,0-1.4-.6-1.3-1.5,0-.6.2-1.2.3-1.7.9-3.4,1.9-6.8,2.8-10.2,1.3-4.6,1.2-4.6-.2-9.1-.3-.9-.8-1.5-1.6-1.9-2.2-1.2-4.3-2.3-6.4-3.6-10.7-6.8-21.2-13.8-31.4-21.3-4.7-3.5-9.9-6-15.4-7.9-1-.3-2.1-.6-3.1-.8-1.1-.2-1.9.3-2.5,1.1-1.2,1.6-.8,3.2.1,4.7.8,1.4,2.1,2,3.8,1.6.9-.2,1.7-.5,2.5-.7,1.9-.5,3.7-.7,5.2.9,13.7,9.1,27.5,18.2,41.2,27.3.5.3,1,.7,1.5,1,1.3.7,1.8,1.8,1.6,3.2,0,.5,0,1-.1,1.5-.4,2.5-.4,5.1-.3,7.6,0,.7,0,1.4,0,2.1,0,1.5-.4,2.9-1.5,4-1.8,1.9-3.6,3.9-5.4,5.9-.9,1-2,1.5-3.4,1.5-4.2.2-7.7,2.1-10.7,4.9-.2.2-.4.4-.6.6-3.5,3.4-7.1,6.8-10.5,10.3-9.5,9.8-19,19.6-28.5,29.4-1.5,1.6-2.9,3.2-4.3,4.8-.7.8-1.3,1.7-1.6,2.8-.3,1.1-.2,2.1.6,3,.4.4.8.9,1.1,1.4.1.3.1.8,0,1.1-.2.4-.6.8-.9,1.1-2.5,2.5-5,5-7.5,7.4-.1.1-.3.3-.4.4-.4,0-.8.1-1.1,0-.6-.4-1-.9-1.6-1.3-1.6-1.3-3.4-1.5-5.3-1-1.7.5-3.3,1.4-4.3,3-.9,1.5-1.9,3-2.6,4.6-1.8,4.2-3.1,8.5-3.9,12.9-.5,2.9,0,3.4,2.9,2.9,4.5-.8,8.8-1.9,13-3.5,1.7-.7,3.4-1.6,4.9-2.7,3.3-2.2,4-6.3,1.7-9.5-.4-.6-.8-1.3-1.2-1.8h0ZM-1.6,649.8c-2.1,0-3.4,1-4.1,3-.5,1.3-.4,2.7-.2,4.1.3,2.1.7,4.3.8,6.4.2,3.1-.9,5.8-2.9,8.1-.6.7-1.3,1.2-1.9,1.8-.2.2-.2.4-.4.7,2.7,0,3.7-.6,4.9-2.2.5-.7.9-1.5,1.2-2.3,1.1-2.5,1-5.2.8-7.8-.1-1.3-.3-2.5-.3-3.8-.1-2.3.5-4.5,1.7-6.4.3-.4.7-.7.5-1.4h0Z"/>
        <path class="st2" d="M-19.4,673.2c-1.7-1-2.8-1.6-3.8-2.3-.5-.4-1-.9-1.4-1.5-.1-.2,0-.7.3-1,.1-.1.6-.2.8,0,2.2,1.2,4.5,2.4,6.6,3.8,1.8,1.1,3.3.8,4.9-.2,2.8-1.7,4.4-4.2,4.7-7.4.1-1.5,0-2.9-.2-4.4-.1-1.1-.4-2.1-.5-3.2-.1-1.1-.2-2.2,0-3.2.6-3.7,2.5-5.5,6.2-5.9,1-.1,2,0,2.9,0,.5,0,1,0,1.5,0,2.3-.6,2.7-1.2,2.7-3.7,0-1.3,0-2.6.4-3.8,1-3.8,2.1-7.6,3.4-11.3.7-2.2,2-4.3,3.3-6.2,1.3-2,3.1-3.2,5.5-3.7,2.2-.5,4.3-.3,6.2.9.5.3,1,.6,1.6,1,2.6-2.1,5-4.4,7.3-6.9-.2-.5-.3-.9-.6-1.2-1.7-2.2-1.2-4.5,0-6.6.7-1.2,1.6-2.2,2.5-3.2,4.3-4.7,8.7-9.4,13.1-13.9,7.4-7.6,14.8-15.2,22.2-22.7,2.7-2.7,5.6-5.3,8.4-7.9,2.7-2.5,6-4.1,9.7-4.4.6,0,1.2,0,1.7-.2.5-.1,1-.3,1.3-.7,1.9-2,3.7-4,5.6-6.1.6-.7.9-1.5.9-2.4,0-.9,0-1.8,0-2.6,0-2.4,0-4.7.4-7,.1-.9.1-1.7.2-2.6-.9-.6-1.7-1.2-2.5-1.8-13.3-8.8-26.7-17.7-40-26.5-.2-.1-.3-.2-.5-.3-1.6-1.4-3.3-1.7-5.2-.8-.4.2-.9.3-1.4.5-2.3.5-4.8-.3-6-2.1-1.2-1.8-2-4.6-.1-7.2,1.1-1.5,2.5-2.2,4.3-1.9,1.3.2,2.5.5,3.7.9,5.7,1.9,11.1,4.6,15.9,8.2,10.2,7.5,20.7,14.5,31.4,21.3,2,1.3,4.1,2.4,6.1,3.5,1.1.6,2,1.3,2.2,2.6,0,.4.2.8.3,1.1,1.5,5.1,1.8,3.6.2,9.7-.6,2.4-1.4,4.7-2.1,7.1-.3,1.2-.7,2.4-.6,3.8,2.6,0,4.9-.8,7.3-1.4,2.1-.5,4.2-1,6.3-1.6,1.6-.4,3.1-.4,4.6.3.2,0,.4.1.6.2,1.5.5,2.9,1.1,4.4,1.6.7,1.4,1.4,2.8,2.1,4.2.3.5.5,1.1.8,1.6,3.1,5.1,6.2,10.2,9.4,15.3,3.4,5.4,6.9,10.8,10.3,16.1,1.6,2.5,3.3,4.9,4.8,7.4,2.4,4.1,4,8.5,5.2,13.1.1.5.2,1,.3,1.4.8,3.4-2.1,6.3-5.4,6-4.7-.4-6.9-4.2-5.5-7.8,1.6-4.4,1.4-3.6-1.1-7.5-8.2-13.4-16.5-26.7-24.8-40.1-1.6-2.6-1.2-2.6-4.7-2.3-1.9.2-3.9.1-5.9.2-.6,0-1.2,0-1.8-.1-2.1-.3-3.8.4-5.4,1.8-1.4,1.3-2.9,2.6-4.4,3.9-.8.7-1.3,1.4-1.4,2.5,0,0,0,.2,0,.3-.4,4.4-2.5,8-5.6,11.1-3.7,3.7-7.4,7.3-11.2,10.8-7.6,7-15.2,13.9-22.8,20.9-3.5,3.2-7.1,6.2-10.6,9.3-.8.7-1.7,1.4-2.5,2,0,0-.2.1-.2.2-2.9,2.1-5.2,2.2-8.4,0-1.7.5-2.7,2.1-4,3.3-1.2,1.1-2.3,2.4-3.3,3.4-.2,1,.3,1.4.6,1.9,2.1,3.8,1.2,8.4-2.2,11.1-2,1.6-4.3,2.8-6.7,3.6-4.6,1.6-9.2,3-14,3.4-1.4.1-2.4.7-3.2,1.8-.2.3-.4.7-.6,1-.4.8-1,1.2-1.9,1.1-2.4-.2-3.9,1.1-4.7,3.2-.4,1-.6,2.1-.7,3.1,0,1.5.1,2.9.3,4.4.4,3.6.2,7.1-1.5,10.3-.9,1.8-2.2,3.2-4.1,4-1.6.7-3.3.9-4.9.5-2-.5-4-.5-6.1-.5-2.9,0-5.9-.4-8.8-.6-.2,0-.4,0-.5-.2-.4-.2-.6-.6-.5-1,0-.2.3-.6.5-.6,1,0,2,0,2.9,0,1.5.1,2.9.5,5.1.1h0ZM28.9,626.7c.2-.4.2-.6.3-.7,2.8-2.7,5.7-5.4,8.5-8.1.8-.8,1.2-.7,2.1-.1.3.2.6.5.9.8,1.3,1.2,2.7,1.1,4.1.4.9-.4,1.7-1,2.5-1.6,1.9-1.5,3.8-3.1,5.6-4.8,10.5-9.5,20.9-19,31.3-28.6,3.3-3.1,6.4-6.3,9.6-9.5,2.5-2.5,4.1-5.5,4.5-9.1,0-.5.2-1,.2-1.5.1-.9.6-1.7,1.2-2.3,1.9-1.7,3.9-3.3,5.8-5,1.6-1.5,3.6-2,5.7-1.8,3.1.3,6.3.3,9.4,0,1.9-.2,3.1.4,4.1,2.1,4.1,6.8,8.3,13.5,12.5,20.3,2.4,3.8,4.8,7.7,7.2,11.5,2.5,4,4.9,8.1,7.4,12,.7,1.1.9,2.1.5,3.3-.3,1.1-.7,2.3-1,3.4-.3,1-.2,1.9.3,2.8.7,1.4,2.7,2.4,4.2,2.2,2-.3,3.1-1.8,2.8-3.7-.2-1.1-.4-2.1-.8-3.1-1.6-5.2-3.9-10.1-6.9-14.6-1.8-2.6-3.6-5.2-5.3-7.8-5.1-8.1-10.4-16-15.1-24.3-.9-1.6-2.1-3.1-2.7-4.9-1-2.9-3.1-4-5.8-4.7-1.3-.3-2.5-.5-3.8-.1-2.1.6-4.2,1.1-6.3,1.6-1.7.4-3.4.9-5.2,1.2-1.1.2-2.3.2-3.5.3-.9,0-1.4-.6-1.3-1.5,0-.6.2-1.2.3-1.7.9-3.4,1.9-6.8,2.8-10.2,1.3-4.6,1.2-4.6-.2-9.1-.3-.9-.8-1.5-1.6-1.9-2.2-1.2-4.3-2.3-6.4-3.6-10.7-6.8-21.2-13.8-31.4-21.3-4.7-3.5-9.9-6-15.4-7.9-1-.3-2.1-.6-3.1-.8-1.1-.2-1.9.3-2.5,1.1-1.2,1.6-.8,3.2.1,4.7.8,1.4,2.1,2,3.8,1.6.9-.2,1.7-.5,2.5-.7,1.9-.5,3.7-.7,5.2.9,13.7,9.1,27.5,18.2,41.2,27.3.5.3,1,.7,1.5,1,1.3.7,1.8,1.8,1.6,3.2,0,.5,0,1-.1,1.5-.4,2.5-.4,5.1-.3,7.6,0,.7,0,1.4,0,2.1,0,1.5-.4,2.9-1.5,4-1.8,1.9-3.6,3.9-5.4,5.9-.9,1-2,1.5-3.4,1.5-4.2.2-7.7,2.1-10.7,4.9-.2.2-.4.4-.6.6-3.5,3.4-7.1,6.8-10.5,10.3-9.5,9.8-19,19.6-28.5,29.4-1.5,1.6-2.9,3.2-4.3,4.8-.7.8-1.3,1.7-1.6,2.8-.3,1.1-.2,2.1.6,3,.4.4.8.9,1.1,1.4.1.3.1.8,0,1.1-.2.4-.6.8-.9,1.1-2.5,2.5-5,5-7.5,7.4-.1.1-.3.3-.4.4-.4,0-.8.1-1.1,0-.6-.4-1-.9-1.6-1.3-1.6-1.3-3.4-1.5-5.3-1-1.7.5-3.3,1.4-4.3,3-.9,1.5-1.9,3-2.6,4.6-1.8,4.2-3.1,8.5-3.9,12.9-.5,2.9,0,3.4,2.9,2.9,4.5-.8,8.8-1.9,13-3.5,1.7-.7,3.4-1.6,4.9-2.7,3.3-2.2,4-6.3,1.7-9.5-.4-.6-.8-1.3-1.2-1.8h0ZM-1.6,649.8c-2.1,0-3.4,1-4.1,3-.5,1.3-.4,2.7-.2,4.1.3,2.1.7,4.3.8,6.4.2,3.1-.9,5.8-2.9,8.1-.6.7-1.3,1.2-1.9,1.8-.2.2-.2.4-.4.7,2.7,0,3.7-.6,4.9-2.2.5-.7.9-1.5,1.2-2.3,1.1-2.5,1-5.2.8-7.8-.1-1.3-.3-2.5-.3-3.8-.1-2.3.5-4.5,1.7-6.4.3-.4.7-.7.5-1.4h0Z"/>
        <g>
          <ellipse class="st3" cx="343.9" cy="133.5" rx="6.9" ry="6.5"/>
          <path class="st2" d="M335.4,133c0-.5,0-1,.2-1.6.8-4,3.9-6.9,7.7-6.9,3.5,0,7,2.4,8,6.5.6,2.5.2,4.9-1.1,7.1-2.5,4-7.8,4.8-11.4,1.9-2.2-1.8-3.2-4.1-3.4-7h0ZM343.5,139.9c2.5,0,4.3-1.1,5.4-3.2,1.5-2.6,1-6.2-1.1-8.3-2.9-3-7.6-2.4-9.7,1.3-1.5,2.8-.9,6.6,1.5,8.7,1.1,1,2.4,1.6,3.8,1.5h0Z"/>
        </g>
        <g>
          <ellipse class="st3" cx="996.6" cy="123.4" rx="6.9" ry="6.5"/>
          <path class="st2" d="M988.1,122.9c0-.5,0-1,.2-1.6.8-4,3.9-6.9,7.7-6.9,3.5,0,7,2.4,8,6.5.6,2.5.2,4.9-1.2,7-2.5,4-7.8,4.8-11.4,1.8-2.2-1.8-3.2-4.2-3.3-7h0ZM996.2,129.7c2.5,0,4.3-1.1,5.4-3.2,1.5-2.6,1-6.2-1.1-8.3-2.9-3-7.6-2.4-9.7,1.3-1.5,2.8-.9,6.6,1.5,8.7,1.1,1,2.4,1.6,3.8,1.5h0Z"/>
        </g>
        <g>
          <ellipse class="st3" cx="1020.7" cy="487.9" rx="6.9" ry="6.5"/>
          <path class="st2" d="M1012.2,487.4c0-.5,0-1,.2-1.6.8-4,3.9-6.9,7.7-6.9,3.5,0,7,2.4,8,6.5.6,2.5.2,4.9-1.2,7-2.5,4-7.8,4.8-11.4,1.9-2.2-1.8-3.2-4.1-3.3-7h0ZM1020.3,494.3c2.5,0,4.3-1.1,5.4-3.2,1.5-2.6,1-6.2-1.1-8.3-2.9-3-7.6-2.4-9.7,1.3-1.5,2.8-.9,6.6,1.5,8.7,1.1,1,2.4,1.6,3.8,1.5h0Z"/>
        </g>
        <g>
          <ellipse class="st3" cx="931" cy="603.8" rx="6.9" ry="6.5"/>
          <path class="st2" d="M922.5,603.3c0-.5,0-1,.2-1.6.8-4,3.9-6.9,7.7-6.9,3.5,0,7,2.4,8,6.5.6,2.5.2,4.9-1.2,7-2.5,4-7.8,4.8-11.4,1.8-2.2-1.8-3.2-4.2-3.3-7h0ZM930.6,610.2c2.5,0,4.3-1.1,5.4-3.2,1.5-2.6,1-6.2-1.1-8.3-2.9-3-7.6-2.4-9.7,1.3-1.5,2.8-.9,6.6,1.5,8.7,1.1,1,2.4,1.6,3.8,1.5h0Z"/>
        </g>
        <path class="st2" d="M9.8,431.4c0-.5,0-1,.2-1.6.8-4,3.9-6.9,7.7-6.9,3.5,0,7,2.4,8,6.5.6,2.5.2,4.9-1.1,7-2.5,4-7.8,4.8-11.4,1.9-2.2-1.8-3.2-4.1-3.4-7h0ZM17.9,438.2c2.5,0,4.3-1.1,5.4-3.2,1.5-2.6,1-6.2-1.1-8.3-2.9-3-7.6-2.4-9.7,1.3-1.5,2.8-.9,6.6,1.5,8.7,1.1,1,2.4,1.6,3.8,1.5h0Z"/>
        <path class="st2" d="M201.9,581.8c-1.8,0-3.4-.7-4.7-1.9-2.4-2.3-2.9-6.1-1.4-9.1,2.2-4.1,7.4-4.7,10.5-1.2,2.2,2.6,2.5,6.6.6,9.4-1.2,1.8-2.9,2.7-5,2.8h0ZM206.3,575.2c0-2.3-.7-3.8-2.1-5-2.1-1.7-4.9-1.3-6.5.9-1,1.4-1.1,3-.8,4.7.5,2.6,2.9,4.5,5.2,4.2,2.3-.3,4.1-2.4,4.1-5,0,0,0-.2,0,.2Z"/>
        <g>
          <path class="st4" d="M861-42.8c-.2.4-.5.7-.6,1-3.3,6.8-42,95-42.8,97.5.5,0,1,0,1.5,0,1.2-.2,2.3-.6,3.4-.8,1.2-.2,1.8,0,2.3,1.3.4.9.6,1.9.9,2.8.2.6.6,1.2.8,1.7,1.4,0,2.3-.9,3.3-1.5,2.6-1.7,3.4-1.4,4.4,1.6.4,1.3.8,2.6,1.6,3.8,1.9-.1,3.7-.4,5.5-1.1,2.4-.8,3.2-.3,3.8,2.1.2.8.3,1.5.4,2.3,0,.4.2.7.3,1.2.5-.1.9-.2,1.2-.3,1.3-.6,2.7-1.3,4-1.9,1-.5,1.9-.2,2.5.8.2.4.4.9.6,1.3.5,1.1,1.1,2.3,1.7,3.5.9-.2,1.6-.4,2.3-.6,1-.4,2-.8,3-1.2.8-.3,1.6,0,2,.8.4.9.7,1.8,1,2.8.2.7.4,1.4.7,2.3,1-.4,1.8-.7,2.6-1,.5-.2,1-.6,1.6-.8,1.4-.5,2.2-.2,2.9,1.1.3.5.5,1.1.8,1.6.5.9,1,1.9,1.6,2.9,2-.5,3.9-.8,5.8-1.6.8-.3,1.6,0,2.1.7.7,1.2,1.3,2.4,1.8,3.7.2.4.2,1,1,1.2,1.3-.5,2.8-1.1,4.2-1.6,1.4-.5,1.9-.2,2.7,1,.3.5.6,1,.9,1.5.3.7.7,1.4,1.1,2.2.9-.4,1.7-.8,2.5-1.2.5-.3,1-.6,1.5-.9,1.3-.7,2-.5,2.6.7.2.4.4.9.6,1.4.2.5.5,1.1.8,1.6.3.6.4,1.3,1.4,1.7,1-.5,2.1-1.2,3.2-1.8,1.3-.7,1.9-.6,2.7.7.3.5.5,1.1.9,1.5.2.3.3.7,1,.5.4-.8.8-1.6,1.2-2.5,11.7-25.7,23.4-51.5,35-77.2,1.8-4,3.7-8,5.5-12.1.2-.5.7-1,.2-1.8-.4,0-.8.2-1.3.3-.8.2-1.5.4-2.3.5-.8.1-1.3-.3-1.6-1-.1-.5-.2-1-.3-1.4-.3-.9-.6-1.8-.9-2.8-.5,0-.9.1-1.3.2-1.4.5-2.8,1-4.2,1.5-.9.3-1.6,0-1.8-.9-.2-.6-.2-1.2-.4-1.7-.1-.5-.2-1-.4-1.4-.2-.5-.1-1.2-.9-1.6-.8.3-1.7.6-2.6.9-2.5.8-3,.6-4.1-1.8-.4-.8-.7-1.6-1.1-2.4-.2-.4-.5-.8-.8-1.3-.6.3-1,.5-1.5.7-1.1.4-2.2.8-3.3,1.1-1.1.3-1.7,0-2.2-1-.3-.5-.5-1.1-.8-1.6-.7-1.2-1.2-2.5-2.2-3.6-.5.1-1,.2-1.4.3-1,.3-2,.7-3.1,1-1.9.5-2.5.2-3.2-1.5-.3-.6-.4-1.3-.7-1.9-.3-.6-.6-1.2-1-1.9-.8.4-1.4.8-2.1,1.2-.9.4-1.8.9-2.7,1.2-.8.3-1.5,0-1.9-.9-.2-.5-.4-1.1-.7-1.6-.5-1.1-.9-2.4-2-3.4-.6.2-1.1.4-1.6.6-1.1.4-2.2.8-3.3,1.2-1,.3-1.7,0-2.1-1-.3-.7-.4-1.5-.8-2.2-.5-1-.6-2.3-1.6-3.2-.9.6-1.7,1.2-2.5,1.7-.6.4-1.2.7-1.9.9-.9.3-1.5,0-2-.8-.4-.7-.8-1.4-1.1-2.1-.7-1.4-1.6-2.7-2.9-3.8-1.1.5-2.2.9-3.2,1.4-.5.2-1,.6-1.6.8-1.5.5-2.4-.1-2.7-1.4-.2-.9-.3-1.7-.5-2.6-.2-.8-.3-1.5-1.2-2.1-.9.4-1.9.8-2.8,1.3-.5.2-1,.6-1.6.8-.9.4-1.5.2-2.1-.5-.6-.9-1.2-1.8-1.8-2.7-.5-.7-.8-1.5-1.8-2h0Z"/>
          <g>
            <path class="st2" d="M933.1-11.1c1.3-.5,2.6-.9,3.9-1.4.4-.1.7-.3,1.1-.4.6-.2,1.2.2,1.3.8.3,1.4.7,2.9,1,4.3,0,.2.2.3.4.7.4,0,.9,0,1.3-.2.9-.3,1.9-.6,2.7-1,2.3-1.2,2.9-1.2,3.4,1.7.2,1,.6,2,1,3.1,1,.4,1.8,0,2.6-.3.7-.2,1.5-.6,2.2-.8.5-.2,1,0,1.3.3.4.4.7,1,.4,1.6-.3.6-.5,1.3-.8,1.9-14.1,31.2-28.3,62.4-42.4,93.6-.4.8-.8,1.6-1.2,2.3-.2.4-.6.8-1.2.7-.3-.1-.7-.4-.8-.8-.6-1.4-1.1-2.7-2.2-4-1.2.3-2.3.9-3.4,1.5-.5.3-1,.6-1.5.9-.5.2-1,0-1.2-.5-.3-.7-.5-1.5-.8-2.2-.4-1.1-1-2.1-1.7-3.1-1.8.4-3.1,1.2-4.5,2.2-.9.6-1.4.5-1.9-.5-.7-1.5-1.3-3-2-4.5-1.5-.3-2.4.5-3.5.8-.9.2-1.8.7-2.8.9-.8.2-1.3,0-1.5-.9-.2-.9-.4-1.9-.7-2.8-.3-.7-.8-1.3-1.3-2-1.9.5-3.8,1-5.7,1.5-1.4.4-1.7.3-2.3-1-.5-1-.9-2-1.4-2.9-.3-.5-.6-1-.9-1.6-.5.1-1,.2-1.4.3-1.4.6-2.7,1.2-4.1,1.7-.8.3-1.3,0-1.6-.8-.2-.8-.3-1.7-.6-2.6-.2-.8-.2-1.8-1-2.5-1.7.7-3.7.9-5.4,1.9-.9.5-1.5.2-1.9-.6-.5-1.3-1-2.6-1.5-3.8-.2-.4-.4-.9-.7-1.4-2.6.6-4.8,2.2-7.4,2.8-1.2-2-.5-4.3-1.6-6.4-.3,0-.7,0-1.1,0-1.9.4-3.8.8-5.8,1.1-1.4.2-1.7,0-2.2-1.2-.5-1.2-.9-2.4-1.3-3.6-.1-.3-.3-.7-.5-1.2-.5.3-.9.5-1.4.7-1.1.6-2.3,1.2-3.4,1.6-1.6.6-2.1.3-2.6-1.3-.5-1.5-.9-3-1.4-4.6-.6,0-1.2,0-1.8.2-1.2.2-2.3.5-3.5.7-.6,0-1.2,0-1.7,0-.8-.1-1.2-.8-1-1.5.3-.9.7-1.8,1.1-2.7,4.9-11.1,9.8-22.3,14.7-33.4,9.1-20.7,18.2-41.3,27.3-62,.4-.9.8-1.8,1.3-2.6.2-.3.6-.5,1-.5.9,0,1.7.2,2.3,1.1.5.8,1.1,1.6,1.7,2.4.4.6.9,1.3,1.2,1.8,1,.3,1.5-.2,2.1-.5,1.1-.5,2.1-1.1,3.2-1.6.8-.4,1.6-.2,2,.7.5,1.3,1,2.6,1.4,3.9.2.5.3,1.1.4,1.7,1.1,0,1.7-.6,2.5-1,.7-.3,1.5-.6,2.2-.9,1.4-.6,1.6-.5,2.5.6,1.3,1.6,2.6,3.2,3.4,5.1.3.6.9.8,1.5.4.7-.4,1.3-.9,1.9-1.3.6-.4,1.1-.9,1.6-1.3.9-.6,1.5-.4,1.9.5,0,0,0,.2.1.3.7,1.9,1.5,3.8,2.3,5.9.5,0,1.1,0,1.6-.3,1.4-.5,2.7-1.2,4.1-1.7.7-.3,1.3,0,1.6.8.2.6.3,1.1.6,1.7.6,1.2,1.3,2.4,1.9,3.7,2.3-.2,3.6-2.4,5.8-2.7,1.4,1.8,1.7,4,2.8,6,.5,0,1.1,0,1.6-.3,1.2-.4,2.4-.9,3.6-1.3,1.1-.4,1.5-.2,2.1.9.8,1.4,1.6,2.9,2.5,4.4.5.9.9,1.1,1.9.7,1.4-.6,2.8-1.3,4.4-2.1,2.1,1.4,2,4.3,3.9,6.4h0ZM861-42.7c-.2.4-.5.7-.6,1-3.3,6.8-42,95-42.8,97.5.5,0,1,0,1.5,0,1.2-.2,2.3-.6,3.4-.8,1.2-.2,1.8,0,2.3,1.3.4.9.6,1.9.9,2.8.2.6.6,1.2.8,1.7,1.4,0,2.3-.9,3.3-1.5,2.6-1.7,3.4-1.4,4.4,1.6.4,1.3.8,2.6,1.6,3.8,1.9-.1,3.7-.4,5.5-1.1,2.4-.8,3.2-.3,3.8,2.1.2.8.3,1.5.4,2.3,0,.4.2.7.3,1.2.5-.1.9-.2,1.2-.3,1.3-.6,2.7-1.3,4-1.9,1-.5,1.9-.2,2.5.8.2.4.4.9.6,1.3.5,1.1,1.1,2.3,1.7,3.5.9-.2,1.6-.4,2.3-.6,1-.4,2-.8,3-1.2.8-.3,1.6,0,2,.8.4.9.7,1.8,1,2.8.2.7.4,1.4.7,2.3,1-.4,1.8-.7,2.6-1,.5-.2,1-.6,1.6-.8,1.4-.5,2.2-.2,2.9,1.1.3.5.5,1.1.8,1.6.5.9,1,1.9,1.6,2.9,2-.5,3.9-.8,5.8-1.6.8-.3,1.6,0,2.1.7.7,1.2,1.3,2.4,1.8,3.7.2.4.2,1,1,1.2,1.3-.5,2.8-1.1,4.2-1.6,1.4-.5,1.9-.2,2.7,1,.3.5.6,1,.9,1.5.3.7.7,1.4,1.1,2.2.9-.4,1.7-.8,2.5-1.2.5-.3,1-.6,1.5-.9,1.3-.7,2-.5,2.6.7.2.4.4.9.6,1.4.2.5.5,1.1.8,1.6.3.6.4,1.3,1.4,1.7,1-.5,2.1-1.2,3.2-1.8,1.3-.7,1.9-.6,2.7.7.3.5.5,1.1.9,1.5.2.3.3.7,1,.5.4-.8.8-1.6,1.2-2.5,11.7-25.7,23.4-51.5,35-77.2,1.8-4,3.7-8,5.5-12.1.2-.5.7-1,.2-1.8-.4,0-.8.2-1.3.3-.8.2-1.5.4-2.3.5-.8.1-1.3-.3-1.6-1-.1-.5-.2-1-.3-1.4-.3-.9-.6-1.8-.9-2.8-.5,0-.9.1-1.3.2-1.4.5-2.8,1-4.2,1.5-.9.3-1.6,0-1.8-.9-.2-.6-.2-1.2-.4-1.7-.1-.5-.2-1-.4-1.4-.2-.5-.1-1.2-.9-1.6-.8.3-1.7.6-2.6.9-2.5.8-3,.6-4.1-1.8-.4-.8-.7-1.6-1.1-2.4-.2-.4-.5-.8-.8-1.3-.6.3-1,.5-1.5.7-1.1.4-2.2.8-3.3,1.1-1.1.3-1.7,0-2.2-1-.3-.5-.5-1.1-.8-1.6-.7-1.2-1.2-2.5-2.2-3.6-.5.1-1,.2-1.4.3-1,.3-2,.7-3.1,1-1.9.5-2.5.2-3.2-1.5-.3-.6-.4-1.3-.7-1.9-.3-.6-.6-1.2-1-1.9-.8.4-1.4.8-2.1,1.2-.9.4-1.8.9-2.7,1.2-.8.3-1.5,0-1.9-.9-.2-.5-.4-1.1-.7-1.6-.5-1.1-.9-2.4-2-3.4-.6.2-1.1.4-1.6.6-1.1.4-2.2.8-3.3,1.2-1,.3-1.7,0-2.1-1-.3-.7-.4-1.5-.8-2.2-.5-1-.6-2.3-1.6-3.2-.9.6-1.7,1.2-2.5,1.7-.6.4-1.2.7-1.9.9-.9.3-1.5,0-2-.8-.4-.7-.8-1.4-1.1-2.1-.7-1.4-1.6-2.7-2.9-3.8-1.1.5-2.2.9-3.2,1.4-.5.2-1,.6-1.6.8-1.5.5-2.4-.1-2.7-1.4-.2-.9-.3-1.7-.5-2.6-.2-.8-.3-1.5-1.2-2.1-.9.4-1.9.8-2.8,1.3-.5.2-1,.6-1.6.8-.9.4-1.5.2-2.1-.5-.6-.9-1.2-1.8-1.8-2.7-.5-.7-.8-1.5-1.8-2h0Z"/>
            <path class="st2" d="M938.5.9c.8,1,1.2,2.2,1.1,3.6-.1,1.8-.3,3.5-.6,5.3-.3,1.4-.6,2.9-1.1,4.3-2,5.5-3.9,11.1-6.6,16.4-2.3,4.6-4.3,9.3-6.3,13.9-2.3,5.3-4.5,10.7-6.9,15.9-2,4.5-4.1,8.9-6.2,13.3-.5,1-1.1,1.9-1.7,2.7-1.1,1.6-2.7,2.5-4.5,3.1-3.2,1-6.4.9-9.5-.6-3.6-1.6-7.2-3.2-10.8-4.7-1.3-.6-2.5-1.1-3.8-1.6-10.1-4-19.9-8.4-29.5-13.4-3.7-1.9-7.5-3.4-11.4-4.8-1.7-.7-3.5-1.4-5.1-2.3-2.7-1.5-3.8-3.9-3.5-6.9.2-1.6.5-3.3,1-4.9,1.8-5.7,4.1-11.2,6.5-16.7,4.6-10.4,9.3-20.8,13.9-31.2,1.1-2.4,1.9-4.9,3-7.4,1.1-2.6,2.3-5.2,3.7-7.7.7-1.3,1.7-2.4,2.6-3.6,1-1.3,2.5-2,4.1-2,1.6,0,3.1,0,4.7.4,4,.8,7.8,1.9,11.6,3.3,8.9,3.3,17.7,7.1,26.4,10.9,4.9,2.1,9.9,4.2,14.9,6.3,3.7,1.6,7.3,3.4,10.7,5.5,1.3.8,2.4,1.7,3.3,2.9h0ZM936.9,2.1c-.9-1.2-1.9-1.9-3-2.6-3.3-2.1-6.9-3.8-10.5-5.3-10.4-4.4-20.8-8.7-31.2-13.2-4.5-2-9.1-3.8-13.8-5.2-2.6-.8-5.3-1.5-8-2-4.4-.8-5.9-.1-8.3,3.8-.2.2-.3.5-.5.8-1,2.1-2.2,4.2-3.1,6.4-5.3,13-10.9,25.9-16.8,38.6-2.6,5.6-5,11.3-6.9,17.2-.4,1.3-.7,2.6-1,4-.4,2.7.4,4.9,3,6.1,1.4.7,2.9,1.3,4.3,1.9,3.4,1.4,7,2.6,10.3,4.3,7.1,3.7,14.3,6.9,21.6,10.2,2.4,1.1,4.9,2,7.3,3.1,2.3,1,4.7,2,7,3,3.5,1.5,7,3,10.6,4.5,2.6,1.1,5.2.5,7.8-.4,2-.7,2.9-2.5,3.9-4.2,0-.2.2-.3.3-.5,2-4.2,4-8.3,5.9-12.5,2.3-5.2,4.5-10.5,6.8-15.7,2.2-4.9,4.3-9.9,6.7-14.8,2.6-5.2,4.6-10.6,6.5-16.1.9-2.6,1.5-5.3,1.6-8.1,0-1.2,0-2.4-.7-3.2h0Z"/>
            <path class="st2" d="M917,4c11.2,16.5,7,39.5-10.1,50.9-17.4,11.5-40,5.9-50.7-10.1-11.1-16.6-6.8-39.6,10.2-50.9,16.7-11.1,39.6-6.7,50.7,10.1ZM867.3-4.5c-15.4,10.3-20.6,31.5-9.6,48.1,10.7,16.1,32,20.3,48.1,9.6,16.1-10.8,20.3-32.1,9.6-48.1-11-16.5-32.6-19.9-48.1-9.6h0Z"/>
            <path class="st2" d="M910.2,8.8c2,3,3.1,6,3.7,9.2.6,3.5.6,7,0,10.5-.8,4.6-2.3,8.9-4.7,12.9-.3.6-.7,1.2-1.2,1.7-.1.2-.6.2-.8.1-.3-.2-.6-.7-.5-.9.2-.6.5-1.3.8-1.9,1.5-2.6,2.6-5.3,3.5-8.1,1.1-3.7,1.6-7.5,1.3-11.3-.3-3.6-1.2-6.9-3-10-1.4-2.5-3.4-4.5-5.9-6-.7-.4-1.4-.8-2-1.3-.2-.2-.1-.7,0-1,0-.2.5-.4.7-.4.5,0,.9.2,1.4.5,2.8,1.5,5.1,3.6,6.7,6h0Z"/>
            <path class="st2" d="M863.3,43.7c-1.5-2.2-2.5-4.5-3.3-7-2-6.3-2.3-12.7-.7-19.2.7-3,1.9-5.8,3.9-8.2.4-.4.8-.8,1.2-1.2.4-.3,1.2-.3,1.3,0,.1.3.1.8,0,1.1-.1.4-.4.6-.7.9-1.6,1.8-2.7,3.8-3.4,6.1-2.5,8.7-1.6,17.1,2.5,25.1,1.2,2.4,3.1,4.3,5.4,5.7.9.6,1.1,1.2.7,1.6-.4.4-.9.5-1.6,0-2.3-1.3-4-3.1-5.3-5.2h0Z"/>
          </g>
        </g>
        <g>
          <path class="st4" d="M1028.3,570.2c-.2.4-.5.7-.6,1-3.3,6.8-42,95-42.8,97.5.5,0,1,0,1.5,0,1.2-.2,2.3-.6,3.4-.8,1.2-.2,1.8,0,2.3,1.3.4.9.6,1.9.9,2.8.2.6.6,1.2.8,1.7,1.4,0,2.3-.9,3.3-1.5,2.6-1.7,3.4-1.4,4.4,1.6.4,1.3.8,2.6,1.6,3.8,1.9-.1,3.7-.4,5.5-1.1,2.4-.8,3.2-.3,3.8,2.1.2.8.3,1.5.4,2.3,0,.4.2.7.3,1.2.5-.1.9-.2,1.2-.3,1.3-.6,2.7-1.3,4-1.9,1-.5,1.9-.2,2.5.8.2.4.4.9.6,1.3.5,1.1,1.1,2.3,1.7,3.5.9-.2,1.6-.4,2.3-.6,1-.4,2-.8,3-1.2.8-.3,1.6,0,2,.8.4.9.7,1.8,1,2.8.2.7.4,1.4.7,2.3,1-.4,1.8-.7,2.6-1,.5-.2,1-.6,1.6-.8,1.4-.5,2.2-.2,2.9,1.1.3.5.5,1.1.8,1.6.5.9,1,1.9,1.6,2.9,2-.5,3.9-.8,5.8-1.6.8-.3,1.6,0,2.1.7.7,1.2,1.3,2.4,1.8,3.7.2.4.2,1,1,1.2,1.3-.5,2.8-1.1,4.2-1.6,1.4-.5,1.9-.2,2.7,1,.3.5.6,1,.9,1.5.3.7.7,1.4,1.1,2.2.9-.4,1.7-.8,2.5-1.2.5-.3,1-.6,1.5-.9,1.3-.7,2-.5,2.6.7.2.4.4.9.6,1.4.2.5.5,1.1.8,1.6.3.6.4,1.3,1.4,1.7,1-.5,2.1-1.2,3.2-1.8,1.3-.7,1.9-.6,2.7.7.3.5.5,1.1.9,1.5.2.3.3.7,1,.5.4-.8.8-1.6,1.2-2.5,11.7-25.7,23.4-51.5,35-77.2,1.8-4,3.7-8,5.5-12.1.2-.5.7-1,.2-1.8-.4,0-.8.2-1.3.3-.8.2-1.5.4-2.3.5-.8.1-1.3-.3-1.6-1-.1-.5-.2-1-.3-1.4-.3-.9-.6-1.8-.9-2.8-.5,0-.9.1-1.3.2-1.4.5-2.8,1-4.2,1.5-.9.3-1.6,0-1.8-.9-.2-.6-.2-1.2-.4-1.7-.1-.5-.2-1-.4-1.4-.2-.5-.1-1.2-.9-1.6-.8.3-1.7.6-2.6.9-2.5.8-3,.6-4.1-1.8-.4-.8-.7-1.6-1.1-2.4-.2-.4-.5-.8-.8-1.3-.6.3-1,.5-1.5.7-1.1.4-2.2.8-3.3,1.1-1.1.3-1.7,0-2.2-1-.3-.5-.5-1.1-.8-1.6-.7-1.2-1.2-2.5-2.2-3.6-.5.1-1,.2-1.4.3-1,.3-2,.7-3.1,1-1.9.5-2.5.2-3.2-1.5-.3-.6-.4-1.3-.7-1.9-.3-.6-.6-1.2-1-1.9-.8.4-1.4.8-2.1,1.2-.9.4-1.8.9-2.7,1.2-.8.3-1.5,0-1.9-.9-.2-.5-.4-1.1-.7-1.6-.5-1.1-.9-2.4-2-3.4-.6.2-1.1.4-1.6.6-1.1.4-2.2.8-3.3,1.2-1,.3-1.7,0-2.1-1-.3-.7-.4-1.5-.8-2.2-.5-1-.6-2.3-1.6-3.2-.9.6-1.7,1.2-2.5,1.7-.6.4-1.2.7-1.9.9-.9.3-1.5,0-2-.8-.4-.7-.8-1.4-1.1-2.1-.7-1.4-1.6-2.7-2.9-3.8-1.1.5-2.2.9-3.2,1.4-.5.2-1,.6-1.6.8-1.5.5-2.4-.1-2.7-1.4-.2-.9-.3-1.7-.5-2.6-.2-.8-.3-1.5-1.2-2.1-.9.4-1.9.8-2.8,1.3-.5.2-1,.6-1.6.8-.9.4-1.5.2-2.1-.5-.6-.9-1.2-1.8-1.8-2.7-.5-.7-.8-1.5-1.8-2h0Z"/>
          <g>
            <path class="st2" d="M1100.4,601.9c1.3-.5,2.6-.9,3.9-1.4.4-.1.7-.3,1.1-.4.6-.2,1.2.2,1.3.8.3,1.4.7,2.9,1,4.3,0,.2.2.3.4.7.4,0,.9,0,1.3-.2.9-.3,1.9-.6,2.7-1,2.3-1.2,2.9-1.2,3.4,1.7.2,1,.6,2,1,3.1,1,.4,1.8,0,2.6-.3.7-.2,1.5-.6,2.2-.8.5-.2,1,0,1.3.3.4.4.7,1,.4,1.6-.3.6-.5,1.3-.8,1.9-14.1,31.2-28.3,62.4-42.4,93.6-.4.8-.8,1.6-1.2,2.3-.2.4-.6.8-1.2.7-.3-.1-.7-.4-.8-.8-.6-1.4-1.1-2.7-2.2-4-1.2.3-2.3.9-3.4,1.5-.5.3-1,.6-1.5.9-.5.2-1,0-1.2-.5-.3-.7-.5-1.5-.8-2.2-.4-1.1-1-2.1-1.7-3.1-1.8.4-3.1,1.2-4.5,2.2-.9.6-1.4.5-1.9-.5-.7-1.5-1.3-3-2-4.5-1.5-.3-2.4.5-3.5.8-.9.2-1.8.7-2.8.9-.8.2-1.3,0-1.5-.9-.2-.9-.4-1.9-.7-2.8-.3-.7-.8-1.3-1.3-2-1.9.5-3.8,1-5.7,1.5-1.4.4-1.7.3-2.3-1-.5-1-.9-2-1.4-2.9-.3-.5-.6-1-.9-1.6-.5.1-1,.2-1.4.3-1.4.6-2.7,1.2-4.1,1.7-.8.3-1.3,0-1.6-.8-.2-.8-.3-1.7-.6-2.6-.2-.8-.2-1.8-1-2.5-1.7.7-3.7.9-5.4,1.9-.9.5-1.5.2-1.9-.6-.5-1.3-1-2.6-1.5-3.8-.2-.4-.4-.9-.7-1.4-2.6.6-4.8,2.2-7.4,2.8-1.2-2-.5-4.3-1.6-6.4-.3,0-.7,0-1.1,0-1.9.4-3.8.8-5.8,1.1-1.4.2-1.7,0-2.2-1.2-.5-1.2-.9-2.4-1.3-3.6-.1-.3-.3-.7-.5-1.2-.5.3-.9.5-1.4.7-1.1.6-2.3,1.2-3.4,1.6-1.6.6-2.1.3-2.6-1.3-.5-1.5-.9-3-1.4-4.6-.6,0-1.2,0-1.8.2-1.2.2-2.3.5-3.5.7-.6,0-1.2,0-1.7,0-.8-.1-1.2-.8-1-1.5.3-.9.7-1.8,1.1-2.7,4.9-11.1,9.8-22.3,14.7-33.4,9.1-20.7,18.2-41.3,27.3-62,.4-.9.8-1.8,1.3-2.6.2-.3.6-.5,1-.5.9,0,1.7.2,2.3,1.1.5.8,1.1,1.6,1.7,2.4.4.6.9,1.3,1.2,1.8,1,.3,1.5-.2,2.1-.5,1.1-.5,2.1-1.1,3.2-1.6.8-.4,1.6-.2,2,.7.5,1.3,1,2.6,1.4,3.9.2.5.3,1.1.4,1.7,1.1,0,1.7-.6,2.5-1,.7-.3,1.5-.6,2.2-.9,1.4-.6,1.6-.5,2.5.6,1.3,1.6,2.6,3.2,3.4,5.1.3.6.9.8,1.5.4.7-.4,1.3-.9,1.9-1.3.6-.4,1.1-.9,1.6-1.3.9-.6,1.5-.4,1.9.5,0,0,0,.2.1.3.7,1.9,1.5,3.8,2.3,5.9.5,0,1.1,0,1.6-.3,1.4-.5,2.7-1.2,4.1-1.7.7-.3,1.3,0,1.6.8.2.6.3,1.1.6,1.7.6,1.2,1.3,2.4,1.9,3.7,2.3-.2,3.6-2.4,5.8-2.7,1.4,1.8,1.7,4,2.8,6,.5,0,1.1,0,1.6-.3,1.2-.4,2.4-.9,3.6-1.3,1.1-.4,1.5-.2,2.1.9.8,1.4,1.6,2.9,2.5,4.4.5.9.9,1.1,1.9.7,1.4-.6,2.8-1.3,4.4-2.1,2.1,1.4,2,4.3,3.9,6.4h0ZM1028.3,570.2c-.2.4-.5.7-.6,1-3.3,6.8-42,95-42.8,97.5.5,0,1,0,1.5,0,1.2-.2,2.3-.6,3.4-.8,1.2-.2,1.8,0,2.3,1.3.4.9.6,1.9.9,2.8.2.6.6,1.2.8,1.7,1.4,0,2.3-.9,3.3-1.5,2.6-1.7,3.4-1.4,4.4,1.6.4,1.3.8,2.6,1.6,3.8,1.9-.1,3.7-.4,5.5-1.1,2.4-.8,3.2-.3,3.8,2.1.2.8.3,1.5.4,2.3,0,.4.2.7.3,1.2.5-.1.9-.2,1.2-.3,1.3-.6,2.7-1.3,4-1.9,1-.5,1.9-.2,2.5.8.2.4.4.9.6,1.3.5,1.1,1.1,2.3,1.7,3.5.9-.2,1.6-.4,2.3-.6,1-.4,2-.8,3-1.2.8-.3,1.6,0,2,.8.4.9.7,1.8,1,2.8.2.7.4,1.4.7,2.3,1-.4,1.8-.7,2.6-1,.5-.2,1-.6,1.6-.8,1.4-.5,2.2-.2,2.9,1.1.3.5.5,1.1.8,1.6.5.9,1,1.9,1.6,2.9,2-.5,3.9-.8,5.8-1.6.8-.3,1.6,0,2.1.7.7,1.2,1.3,2.4,1.8,3.7.2.4.2,1,1,1.2,1.3-.5,2.8-1.1,4.2-1.6,1.4-.5,1.9-.2,2.7,1,.3.5.6,1,.9,1.5.3.7.7,1.4,1.1,2.2.9-.4,1.7-.8,2.5-1.2.5-.3,1-.6,1.5-.9,1.3-.7,2-.5,2.6.7.2.4.4.9.6,1.4.2.5.5,1.1.8,1.6.3.6.4,1.3,1.4,1.7,1-.5,2.1-1.2,3.2-1.8,1.3-.7,1.9-.6,2.7.7.3.5.5,1.1.9,1.5.2.3.3.7,1,.5.4-.8.8-1.6,1.2-2.5,11.7-25.7,23.4-51.5,35-77.2,1.8-4,3.7-8,5.5-12.1.2-.5.7-1,.2-1.8-.4,0-.8.2-1.3.3-.8.2-1.5.4-2.3.5-.8.1-1.3-.3-1.6-1-.1-.5-.2-1-.3-1.4-.3-.9-.6-1.8-.9-2.8-.5,0-.9.1-1.3.2-1.4.5-2.8,1-4.2,1.5-.9.3-1.6,0-1.8-.9-.2-.6-.2-1.2-.4-1.7-.1-.5-.2-1-.4-1.4-.2-.5-.1-1.2-.9-1.6-.8.3-1.7.6-2.6.9-2.5.8-3,.6-4.1-1.8-.4-.8-.7-1.6-1.1-2.4-.2-.4-.5-.8-.8-1.3-.6.3-1,.5-1.5.7-1.1.4-2.2.8-3.3,1.1-1.1.3-1.7,0-2.2-1-.3-.5-.5-1.1-.8-1.6-.7-1.2-1.2-2.5-2.2-3.6-.5.1-1,.2-1.4.3-1,.3-2,.7-3.1,1-1.9.5-2.5.2-3.2-1.5-.3-.6-.4-1.3-.7-1.9-.3-.6-.6-1.2-1-1.9-.8.4-1.4.8-2.1,1.2-.9.4-1.8.9-2.7,1.2-.8.3-1.5,0-1.9-.9-.2-.5-.4-1.1-.7-1.6-.5-1.1-.9-2.4-2-3.4-.6.2-1.1.4-1.6.6-1.1.4-2.2.8-3.3,1.2-1,.3-1.7,0-2.1-1-.3-.7-.4-1.5-.8-2.2-.5-1-.6-2.3-1.6-3.2-.9.6-1.7,1.2-2.5,1.7-.6.4-1.2.7-1.9.9-.9.3-1.5,0-2-.8-.4-.7-.8-1.4-1.1-2.1-.7-1.4-1.6-2.7-2.9-3.8-1.1.5-2.2.9-3.2,1.4-.5.2-1,.6-1.6.8-1.5.5-2.4-.1-2.7-1.4-.2-.9-.3-1.7-.5-2.6-.2-.8-.3-1.5-1.2-2.1-.9.4-1.9.8-2.8,1.3-.5.2-1,.6-1.6.8-.9.4-1.5.2-2.1-.5-.6-.9-1.2-1.8-1.8-2.7-.5-.7-.8-1.5-1.8-2h0Z"/>
            <path class="st2" d="M1105.7,613.9c.8,1,1.2,2.2,1.1,3.6-.1,1.8-.3,3.5-.6,5.3-.3,1.4-.6,2.9-1.1,4.3-2,5.5-3.9,11.1-6.6,16.4-2.3,4.6-4.3,9.3-6.3,13.9-2.3,5.3-4.5,10.7-6.9,15.9-2,4.5-4.1,8.9-6.2,13.3-.5,1-1.1,1.9-1.7,2.7-1.1,1.6-2.7,2.5-4.5,3.1-3.2,1-6.4.9-9.5-.6-3.6-1.6-7.2-3.2-10.8-4.7-1.3-.6-2.5-1.1-3.8-1.6-10.1-4-19.9-8.4-29.5-13.4-3.7-1.9-7.5-3.4-11.4-4.8-1.7-.7-3.5-1.4-5.1-2.3-2.7-1.5-3.8-3.9-3.5-6.9.2-1.6.5-3.3,1-4.9,1.8-5.7,4.1-11.2,6.5-16.7,4.6-10.4,9.3-20.8,13.9-31.2,1.1-2.4,1.9-4.9,3-7.4,1.1-2.6,2.3-5.2,3.7-7.7.7-1.3,1.7-2.4,2.6-3.6,1-1.3,2.5-2,4.1-2,1.6,0,3.1,0,4.7.4,4,.8,7.8,1.9,11.6,3.3,8.9,3.3,17.7,7.1,26.4,10.9,4.9,2.1,9.9,4.2,14.9,6.3,3.7,1.6,7.3,3.4,10.7,5.5,1.3.8,2.4,1.7,3.3,2.9h0ZM1104.2,615.1c-.9-1.2-1.9-1.9-3-2.6-3.3-2.1-6.9-3.8-10.5-5.3-10.4-4.4-20.8-8.7-31.2-13.2-4.5-2-9.1-3.8-13.8-5.2-2.6-.8-5.3-1.5-8-2-4.4-.8-5.9-.1-8.3,3.8-.2.2-.3.5-.5.8-1,2.1-2.2,4.2-3.1,6.4-5.3,13-10.9,25.9-16.8,38.6-2.6,5.6-5,11.3-6.9,17.2-.4,1.3-.7,2.6-1,4-.4,2.7.4,4.9,3,6.1,1.4.7,2.9,1.3,4.3,1.9,3.4,1.4,7,2.6,10.3,4.3,7.1,3.7,14.3,6.9,21.6,10.2,2.4,1.1,4.9,2,7.3,3.1,2.3,1,4.7,2,7,3,3.5,1.5,7,3,10.6,4.5,2.6,1.1,5.2.5,7.8-.4,2-.7,2.9-2.5,3.9-4.2,0-.2.2-.3.3-.5,2-4.2,4-8.3,5.9-12.5,2.3-5.2,4.5-10.5,6.8-15.7,2.2-4.9,4.3-9.9,6.7-14.8,2.6-5.2,4.6-10.6,6.5-16.1.9-2.6,1.5-5.3,1.6-8.1,0-1.2,0-2.4-.7-3.2h0Z"/>
            <path class="st2" d="M1084.3,616.9c11.2,16.5,7,39.5-10.1,50.9-17.4,11.5-40,5.9-50.7-10.1-11.1-16.6-6.8-39.6,10.2-50.9,16.7-11.1,39.6-6.7,50.7,10.1ZM1034.6,608.5c-15.4,10.3-20.6,31.5-9.6,48.1,10.7,16.1,32,20.3,48.1,9.6,16.1-10.8,20.3-32.1,9.6-48.1-11-16.5-32.6-19.9-48.1-9.6h0Z"/>
            <path class="st2" d="M1077.4,621.7c2,3,3.1,6,3.7,9.2.6,3.5.6,7,0,10.5-.8,4.6-2.3,8.9-4.7,12.9-.3.6-.7,1.2-1.2,1.7-.1.2-.6.2-.8.1-.3-.2-.6-.7-.5-.9.2-.6.5-1.3.8-1.9,1.5-2.6,2.6-5.3,3.5-8.1,1.1-3.7,1.6-7.5,1.3-11.3-.3-3.6-1.2-6.9-3-10-1.4-2.5-3.4-4.5-5.9-6-.7-.4-1.4-.8-2-1.3-.2-.2-.1-.7,0-1,0-.2.5-.4.7-.4.5,0,.9.2,1.4.5,2.8,1.5,5.1,3.6,6.7,6h0Z"/>
            <path class="st2" d="M1030.5,656.6c-1.5-2.2-2.5-4.5-3.3-7-2-6.3-2.3-12.7-.7-19.2.7-3,1.9-5.8,3.9-8.2.4-.4.8-.8,1.2-1.2.4-.3,1.2-.3,1.3,0,.1.3.1.8,0,1.1-.1.4-.4.6-.7.9-1.6,1.8-2.7,3.8-3.4,6.1-2.5,8.7-1.6,17.1,2.5,25.1,1.2,2.4,3.1,4.3,5.4,5.7.9.6,1.1,1.2.7,1.6-.4.4-.9.5-1.6,0-2.3-1.3-4-3.1-5.3-5.2h0Z"/>
          </g>
        </g>
        <g>
          <path class="st3" d="M133.8,80.7c0-.3.2-.8.4-1.4.6-1.7.1-3.1-1.1-4.3-1-.9-2-1.9-3.2-2.6-4.1-2.7-8.1-5.5-12.3-8-10.4-6.4-20.8-13-31.1-19.6-10.6-6.8-21.6-13.2-32.5-19.6-7.4-4.3-14.8-8.6-22.2-12.8-5.4-3.1-10.9-6.3-16.7-8.7-1.2-.5-2.4-1-3.6-1.2-2.9-.6-5.5,0-7.3,2.6-.9,1.3-1.9,2.5-2.7,3.8-3.7,5.8-7.4,11.6-11,17.4-1.5,2.4-2.9,4.9-4.3,7.4-1,1.7-1.7,3.6-2.7,5.2-2.3,3.7-4.2,7.5-6.2,11.4-.9,1.8-1.6,3.6-2.4,5.4-.8,1.9-.5,3.7.6,5.3.7,1,1.6,2,2.5,2.9,1.3,1.2,2.8,2.2,4.2,3.2,9.2,6.2,18.6,12,28.2,17.6,5.9,3.4,11.7,6.8,17.5,10.3,8.6,5.3,17.2,10.6,25.7,16,4.6,2.9,9.2,6,13.9,8.9,7.8,4.8,15.6,9.5,23.4,14.2,1.1.7,2.2,1.3,3.4,1.8.9.4,1.8.8,2.8.9,2.1.4,3.9,0,5.2-1.9.6-.8,1.2-1.6,1.7-2.4,1.6-2.4,3-4.8,4.7-7.1,1.6-2.1,3.1-4.3,4.4-6.6,3.4-6.2,7.3-12.1,10.7-18.3,2.3-4.1,4.9-8,6.9-12.3,1.1-2.3,2.6-4.4,3.1-7.3h0Z"/>
          <g>
            <path class="st2" d="M12.4.4c3.6,1.2,6.8,2.7,9.9,4.4,6.3,3.5,12.5,7,18.7,10.6,5.9,3.4,11.6,7,17.5,10.3,9.6,5.2,18.7,11.1,28,16.8,4.9,3,9.7,6.3,14.6,9.4,5.3,3.4,10.7,6.6,16,9.9,4.5,2.8,8.9,5.7,13.3,8.7,1.3.9,2.5,2,3.6,3.1,1.7,1.7,2.1,3.7,1.5,6-.3,1.2-.7,2.4-1.2,3.6-1.8,4.3-3.9,8.3-6.3,12.3-4.4,7.5-8.9,15-13.3,22.6-3.3,5.8-7.3,11.1-11.1,16.7-2.5,3.7-6,4.5-10.1,2.7-1.3-.6-2.5-1.2-3.7-1.9-6.2-3.7-12.5-7.4-18.7-11.2-3.8-2.3-7.4-4.8-11.1-7.2-4.1-2.6-8.2-5.1-12.2-7.6-6.9-4.3-13.8-8.7-20.7-13-6.2-3.8-12.5-7.4-18.8-11-9.6-5.6-19.1-11.3-28.2-17.6-1.8-1.2-3.4-2.6-5.1-4-1.3-1.1-2.2-2.5-2.8-4.1-.7-1.9-.8-3.8,0-5.7,1.3-2.8,2.5-5.6,3.9-8.2,3.2-6.1,6.6-12.1,9.9-18.1.6-1.1,1.4-2.2,2-3.2C-7.8,18.6-4.4,12.2-.2,6.3c.8-1.1,1.6-2.2,2.4-3.3C4.2.3,7-.4,10.1,0c.9.1,1.7.4,2.4.5h0ZM133,80.4c0-.3.2-.8.4-1.4.6-1.7.1-3.1-1.1-4.3-1-.9-2-1.9-3.2-2.6-4.1-2.7-8.1-5.5-12.3-8-10.4-6.4-20.8-13-31.1-19.6-10.6-6.8-21.6-13.2-32.5-19.6-7.4-4.3-14.8-8.6-22.2-12.8-5.4-3.1-10.9-6.3-16.7-8.7-1.2-.5-2.4-1-3.6-1.2-2.9-.6-5.5,0-7.3,2.6-.9,1.3-1.9,2.5-2.7,3.8-3.7,5.8-7.4,11.6-11,17.4-1.5,2.4-2.9,4.9-4.3,7.4-1,1.7-1.7,3.6-2.7,5.2-2.3,3.7-4.2,7.5-6.2,11.4-.9,1.8-1.6,3.6-2.4,5.4-.8,1.9-.5,3.7.6,5.3.7,1,1.6,2,2.5,2.9,1.3,1.2,2.8,2.2,4.2,3.2,9.2,6.2,18.6,12,28.2,17.6,5.9,3.4,11.7,6.8,17.5,10.3,8.6,5.3,17.2,10.6,25.7,16,4.6,2.9,9.2,6,13.9,8.9,7.8,4.8,15.6,9.5,23.4,14.2,1.1.7,2.2,1.3,3.4,1.8.9.4,1.8.8,2.8.9,2.1.4,3.9,0,5.2-1.9.6-.8,1.2-1.6,1.7-2.4,1.6-2.4,3-4.8,4.7-7.1,1.6-2.1,3.1-4.3,4.4-6.6,3.4-6.2,7.3-12.1,10.7-18.3,2.3-4.1,4.9-8,6.9-12.3,1.1-2.3,2.6-4.4,3.1-7.3h0Z"/>
            <path class="st2" d="M6.1,36.3c3.4,1.6,6.8,3,10.1,4.7,13.1,6.5,25.8,13.8,38.3,21.3,13.1,7.9,26.1,15.9,38.6,24.8,3.2,2.3,6.3,4.7,9.4,7.1.9.7,1.8,1.6,2.6,2.4.4.4.7,1,.9,1.5.3.7-.4,1.8-1.1,1.7-.9,0-1.8-.1-2.6-.4-2.5-.9-5-1.9-7.4-3-8-3.7-15.8-7.9-23.4-12.3-17.3-9.8-34.3-20.2-50.9-31.2-5-3.3-9.8-6.8-14.4-10.6-1.1-.9-2.1-1.8-3.1-2.7-.5-.5-.9-1-1.2-1.6-.5-.9.2-2.1,1.3-2,.3,0,.6,0,.9,0,.7.2,1.3.4,2,.5v-.2c0,0,0,0,0,0ZM5.1,38.5c0,.7.4,1,.8,1.3,2.5,1.9,4.9,3.9,7.5,5.7,24.6,17.4,50.5,32.8,77.2,46.8,3.2,1.7,6.6,3.1,9.8,4.6.6.3,1.3.7,2.2.4-.5-1.1-1.3-1.6-2.1-2.2-3.9-2.9-7.6-5.8-11.6-8.5-20.7-14.2-42.3-27.1-64.3-39.1-5.4-2.9-10.9-5.8-16.6-8.2-.9-.4-1.7-.9-2.8-.9h0Z"/>
            <path class="st2" d="M47,36.6c-1,2.8-2.9,5-6.3,5.5-3.3.5-6-.8-7.8-3.6-2-2.9-1.9-6.8,0-9.7,2.5-3.7,7.6-4.5,11.1-1.8,2.7,2.1,4,5.9,3,9.5h0ZM45.1,35.7c.7-2.4,0-4.8-1.6-6.5-2.6-2.7-6.9-2.3-8.9.7-.8,1.2-1.1,2.5-1.2,3.9,0,3.1,2.4,6,5.4,6.4,2.9.4,5.5-1.5,6.3-4.5h0Z"/>
            <path class="st2" d="M9.2,69.7c1.2-4.3,5.9-6.8,10.2-5.5,4.1,1.2,6.4,5.5,5.2,9.5-1.1,3.8-5.3,6.9-10.3,5.5-4.8-1.4-6.3-6-5.2-9.5ZM15,77.2c3.3,1,6.8-.8,7.7-4,.9-3.1-.9-6.3-4-7.1-3.2-.9-6.6.9-7.6,4-1,3.1.7,6.2,3.9,7.2h0Z"/>
            <path class="st2" d="M61.6,57c-2.1-.5-3.7-1.7-4.9-3.5-2.2-3.3-1.5-7.6,1.8-9.9,3.9-2.8,9.5-1.8,12.3,2.1,2.3,3.4,1.6,7.8-1.8,10.1-2.2,1.5-4.7,1.9-7.3,1.2h0ZM65.4,44.4c-1.9-.5-3.7-.4-5.4.7-2.8,1.7-3.4,5-1.5,7.6,2,2.8,6.3,3.6,9.2,1.7,2.7-1.8,3.3-5.1,1.3-7.7-.9-1.2-2.2-1.9-3.6-2.3h0Z"/>
            <path class="st2" d="M91.1,58.3c1.8.5,3.5,1.6,4.7,3.4,1.9,2.9,1.5,6.4-1.2,8.8-3.8,3.4-10.5,2.4-13.2-1.9-2-3.2-1.1-7.2,2.1-9.3,2.3-1.5,4.7-1.8,7.6-1h0ZM86.8,70.2c2,.6,3.9.4,5.7-.6,2.6-1.6,3.1-4.7,1.3-7.1-2.2-2.9-6.9-3.5-9.7-1.2-2,1.6-2.4,4.2-1,6.3.9,1.4,2.2,2.2,3.7,2.6Z"/>
            <path class="st2" d="M121.5,82.6c-1.2,4.2-5.5,6.6-9.7,5.4-3.7-1-6.8-5.3-5.4-9.9,1.2-3.9,5.3-6.6,9.8-5.3,4.1,1.2,6.5,5.4,5.3,9.7h0ZM115.4,74.7c-3.1-.8-6.3.9-7.1,4.1-.9,3.2,1,6.6,4.2,7.4,3.2.8,6.4-1.2,7.2-4.4.7-3.1-1.1-6.2-4.3-7Z"/>
            <path class="st2" d="M10.5,25.9c-4.2-1.2-6.6-5.4-5.5-9.6,1-3.9,5.1-6.9,9.8-5.6,4.1,1.1,6.7,5.5,5.5,9.7-1.3,4.7-5.9,6.8-9.8,5.6h0ZM14.1,12.5c-3.2-.8-6.4,1-7.2,4.3-.8,3.2,1.1,6.4,4.3,7.2,3.2.8,6.4-1.1,7.2-4.3.8-3.2-1-6.3-4.3-7.2h0Z"/>
            <path class="st2" d="M68.4,95.7c1.8.6,3.4,1.5,4.5,3.1,2.2,2.9,1.7,6.8-1,9.2-3.5,3.1-9.4,2.5-12.3-1.2-2.3-3-1.8-7,1.1-9.4,2.3-1.9,4.9-2.2,7.7-1.6h0ZM68.3,97.8c-2.5-.7-4.5-.4-6.2,1-2.1,1.7-2.5,4.7-.8,6.8,2.1,2.8,6.5,3.3,9.2,1.1,2.2-1.8,2.5-4.9.7-7-.9-1-2-1.6-2.8-1.8Z"/>
            <path class="st2" d="M-16.7,53.2c1.4-4.8,7.1-6.9,11.4-4.2,1.1.7,2,1.5,2.7,2.6,1.5,2.4,1.9,5,.5,7.5-1.4,2.6-3.6,4-6.6,4.1-5.4.2-9.5-5-8-10.1ZM-3.5,57.3c1.1-4.3-3-8.3-7.4-7.3-2.7.7-4.5,3.2-4.1,5.9.5,3.8,4.5,6.3,8.1,5,1.8-.6,2.9-1.9,3.4-3.7h0Z"/>
            <path class="st2" d="M84.9,116.2c.9-3.7,4.8-6.6,9.4-5.3,4.1,1.1,6.5,5.5,5.4,9.5-1.1,4.1-5.3,6.4-9.5,5.2-4.2-1.2-6.5-5.7-5.3-9.5h0ZM94.1,113c-3.1-1-6.2.4-7.2,3.3-1.1,3,.5,6.3,3.5,7.4,3.1,1.1,6.4-.5,7.3-3.6.9-2.9-.7-6.1-3.7-7.1h0Z"/>
            <path class="st2" d="M42.8,79c4.6,1.2,7.2,5.5,5.9,9.6-.7,2.1-2.1,3.6-4,4.4-3,1.2-5.8.9-8.3-1.1-2.6-2-3.6-5.3-2.6-8.1,1-2.9,3.9-4.9,7-4.9.8,0,1.6.1,2,.2h0ZM43,81.1c-.7-.1-1.1-.2-1.5-.3-2.4-.2-4.8,1.2-5.7,3.3-.9,2.3-.2,4.8,1.8,6.3,1.5,1.1,3.2,1.5,5,1.2,2.2-.4,3.8-1.7,4.3-3.9.6-2.2-.2-4.1-2-5.5-.7-.5-1.5-.9-2-1.1h0Z"/>
          </g>
          <g>
            <circle class="st5" cx="170.4" cy="48.5" r="11.4"/>
            <path class="st2" d="M170.4,60c-5.4.2-11.6-4.3-11.5-11.7.1-7.6,6.5-11.5,11.5-11.4,6.4.1,11.6,5.3,11.5,11.7-.1,7-6,11.6-11.5,11.4ZM166.6,39c-5.5,2.1-7.9,8.4-5.5,13.7.8,1.8,2,3.2,3.7,4.3,1.6,1,3.3,1.6,5.2,1.6,1.5,0,2.1,0,3.1-.6-.5-2.2-5.6-17.4-6.5-19h0ZM174.5,57.8c2.5-1.1,4.1-2.7,5.2-4.9,1.2-2.4,1.3-4.9.6-7.5-1.6-5.1-6.8-8.1-11.9-6.8,0,.2,0,.4,0,.6,2,6.1,4.1,12.2,6.2,18.6h0Z"/>
          </g>
          <g>
            <circle class="st5" cx="20.7" cy="144" r="11.4"/>
            <path class="st2" d="M20.6,155.4c-5.4.2-11.6-4.3-11.5-11.7.1-7.6,6.5-11.5,11.5-11.4,6.4.1,11.6,5.3,11.5,11.7-.1,7-6,11.6-11.5,11.4h0ZM16.8,134.5c-5.5,2.1-7.9,8.4-5.5,13.7.8,1.8,2,3.2,3.7,4.3,1.6,1,3.3,1.6,5.2,1.6,1.5,0,2.1,0,3.1-.6-.5-2.2-5.6-17.4-6.5-19h0ZM24.7,153.2c2.5-1.1,4.1-2.7,5.2-4.9,1.2-2.4,1.3-4.9.6-7.5-1.6-5.1-6.8-8.1-11.9-6.8,0,.2,0,.4,0,.6,2,6.1,4.1,12.2,6.2,18.6h0Z"/>
          </g>
        </g>
        <g>
          <path class="st1" d="M-62.7,420.4c.2.1.8.4,1.2.8,1.5,1,3,1,4.4,0,1.2-.7,2.4-1.4,3.4-2.3,3.7-3.2,7.5-6.3,11.1-9.6,9.1-8.3,18.2-16.4,27.4-24.5,9.5-8.3,18.7-17.1,27.8-25.8,6.2-5.9,12.3-11.8,18.4-17.7,4.5-4.4,9.1-8.7,13-13.6.8-1,1.6-2,2.2-3.1,1.4-2.6,1.5-5.2-.5-7.7-1-1.2-1.9-2.5-2.9-3.7-4.5-5.2-9.1-10.3-13.7-15.4-1.9-2.1-3.9-4.2-5.9-6.2-1.4-1.4-3-2.6-4.3-4-2.9-3.2-6.1-6.1-9.3-9.1-1.4-1.3-3-2.6-4.5-3.8-1.6-1.3-3.4-1.5-5.3-.9-1.2.4-2.4.9-3.4,1.6-1.5,1-2.9,2-4.2,3.2-8.5,7.1-16.7,14.6-24.7,22.3-4.9,4.7-9.7,9.4-14.7,14-7.4,6.8-15,13.6-22.5,20.3-4.1,3.7-8.3,7.2-12.4,10.9-6.7,6.1-13.4,12.4-20.1,18.6-.9.9-1.9,1.8-2.7,2.7-.6.7-1.2,1.5-1.7,2.4-.9,1.9-1,3.8.4,5.5.6.8,1.2,1.6,1.8,2.3,1.8,2.2,3.8,4.2,5.5,6.5,1.6,2.1,3.3,4.2,5.2,6,5,5,9.6,10.4,14.6,15.3,3.3,3.3,6.4,6.9,10,10,1.9,1.6,3.5,3.7,6.1,5h0Z"/>
          <path class="st2" d="M47.1,326.5c-2.1,3.1-4.5,5.8-7,8.3-5.1,5.1-10.2,10-15.4,15-4.9,4.7-10,9.2-14.7,14-7.7,7.7-15.9,14.9-23.9,22.3-4.3,3.9-8.8,7.6-13.1,11.4-4.7,4.2-9.3,8.5-14,12.7-4,3.5-8,7-12,10.4-1.2,1-2.6,1.8-3.9,2.6-2.1,1.1-4.2,1-6.2-.2-1.1-.7-2.1-1.4-3.1-2.2-3.6-2.9-6.9-6.1-10.1-9.4-6-6.3-12-12.7-18.1-19-4.6-4.8-8.7-10.1-13-15.2-2.8-3.4-2.7-7,.2-10.4.9-1.1,1.8-2.1,2.8-3,5.3-5,10.6-10,15.9-14.9,3.3-3,6.7-5.8,10-8.7,3.6-3.2,7.1-6.4,10.7-9.7,6.1-5.4,12.2-10.8,18.2-16.3,5.3-4.9,10.6-10,15.8-15,8-7.7,16.1-15.2,24.7-22.3,1.7-1.4,3.5-2.6,5.3-3.8,1.4-.9,3-1.5,4.7-1.6,2-.2,3.9.3,5.5,1.6,2.3,2,4.6,3.9,6.8,6,4.9,4.8,9.8,9.7,14.6,14.5.9.9,1.7,1.9,2.5,2.9,4.8,5.5,10,10.5,14.5,16.2.9,1.1,1.7,2.1,2.5,3.2,2,2.6,2,5.5.8,8.4-.3.8-.8,1.6-1.1,2.1h0ZM-63,420.3c.2.1.8.4,1.2.8,1.5,1,3,1,4.4,0,1.2-.7,2.4-1.4,3.4-2.3,3.7-3.2,7.5-6.3,11.1-9.6,9.1-8.3,18.2-16.4,27.4-24.5,9.5-8.3,18.7-17.1,27.8-25.8,6.2-5.9,12.3-11.8,18.4-17.7,4.5-4.4,9.1-8.7,13-13.6.8-1,1.6-2,2.2-3.1,1.4-2.6,1.5-5.2-.5-7.7-1-1.2-1.9-2.5-2.9-3.7-4.5-5.2-9.1-10.3-13.7-15.4-1.9-2.1-3.9-4.2-5.9-6.2-1.4-1.4-3-2.6-4.3-4-2.9-3.2-6.1-6.1-9.3-9.1-1.4-1.3-3-2.6-4.5-3.8-1.6-1.3-3.4-1.5-5.3-.9-1.2.4-2.4.9-3.4,1.6-1.5,1-2.9,2-4.2,3.2-8.5,7.1-16.7,14.6-24.7,22.3-4.9,4.7-9.7,9.4-14.7,14-7.4,6.8-15,13.6-22.5,20.3-4.1,3.7-8.3,7.2-12.4,10.9-6.7,6.1-13.4,12.4-20.1,18.6-.9.9-1.9,1.8-2.7,2.7-.6.7-1.2,1.5-1.7,2.4-.9,1.9-1,3.8.4,5.5.6.8,1.2,1.6,1.8,2.3,1.8,2.2,3.8,4.2,5.5,6.5,1.6,2.1,3.3,4.2,5.2,6,5,5,9.6,10.4,14.6,15.3,3.3,3.3,6.4,6.9,10,10,1.9,1.6,3.5,3.7,6.1,5h0Z"/>
          <path class="st2" d="M27.9,328.3c-2.4,2.8-4.8,5.7-7.3,8.5-9.9,10.8-20.4,21-31,30.9-11.2,10.4-22.5,20.7-34.5,30.2-3.1,2.4-6.3,4.7-9.4,7-.9.7-2,1.3-3,1.8-.5.3-1.1.4-1.7.5-.8,0-1.6-.8-1.3-1.5.3-.8.6-1.7,1.1-2.4,1.6-2.1,3.2-4.2,4.9-6.2,5.8-6.7,12-13,18.3-19.1,14.2-13.9,28.8-27.4,44.1-40.3,4.6-3.9,9.2-7.6,14.2-11,1.1-.8,2.3-1.5,3.5-2.2.6-.3,1.3-.6,1.9-.7,1.1-.2,1.9.8,1.6,1.8,0,.3-.2.6-.3.8-.3.6-.7,1.2-1.1,1.8h.1c0,.1,0,.1,0,.1ZM26.1,326.8c-.7-.1-1.1.1-1.5.4-2.5,1.9-5.1,3.6-7.6,5.6-23.5,18.9-45.4,39.5-66.2,61.3-2.5,2.6-4.8,5.4-7.2,8.2-.5.5-1,1.1-1,2,1.2-.2,1.9-.8,2.7-1.4,3.8-2.9,7.7-5.7,11.4-8.8,19.3-16,37.7-33.1,55.3-51.1,4.3-4.4,8.6-8.9,12.4-13.7.6-.7,1.3-1.4,1.6-2.5h0Z"/>
          <path class="st2" d="M-19.6,350.9c-3.2,5.5-9.8,7.2-14.5,4-2.5-1.6-3.8-4-4.2-6.8-.5-4.3,1-7.7,4.5-10.3,3.5-2.6,8.2-2.7,11.4-.3,3.4,2.4,4.9,6.8,3.8,10.9-.3,1-.8,2-1,2.6h0ZM-22.3,350.3c.4-.9.7-1.3.9-1.8,1.2-3,.3-6.7-2.1-8.5-2.6-2-6-2.1-8.7,0-2,1.5-3.1,3.5-3.4,6-.3,3,.8,5.5,3.4,7,2.6,1.5,5.3,1.3,7.7-.5.9-.7,1.7-1.6,2.2-2.1h0Z"/>
          <ellipse class="st5" cx="-28.2" cy="346.1" rx="7.7" ry="7.2" transform="translate(-287.6 115.2) rotate(-53)"/>
          <path class="st2" d="M-2,293.5c-2.4,2.8-4.8,5.7-7.3,8.5-9.9,10.8-20.4,21-31,30.9-11.2,10.4-22.5,20.7-34.5,30.2-3.1,2.4-6.3,4.7-9.4,7-.9.7-2,1.3-3,1.8-.5.3-1.1.4-1.7.5-.8,0-1.6-.8-1.3-1.5.3-.8.6-1.7,1.1-2.4,1.6-2.1,3.2-4.2,4.9-6.2,5.8-6.7,12-13,18.3-19.1,14.2-13.9,28.8-27.4,44.1-40.3,4.6-3.9,9.2-7.6,14.2-11,1.1-.8,2.3-1.5,3.5-2.2.6-.3,1.3-.6,1.9-.7,1.1-.2,1.9.8,1.6,1.8,0,.3-.2.6-.3.8-.3.6-.7,1.2-1.1,1.8h.1c0,.1,0,.1,0,.1ZM-3.8,291.9c-.7-.1-1.1.1-1.5.4-2.5,1.9-5.1,3.6-7.6,5.6-23.5,18.9-45.4,39.5-66.2,61.3-2.5,2.6-4.8,5.4-7.2,8.2-.5.5-1,1.1-1,2,1.2-.2,1.9-.8,2.7-1.4,3.8-2.9,7.7-5.7,11.4-8.8,19.3-16,37.7-33.1,55.3-51.1,4.3-4.4,8.6-8.9,12.4-13.7.6-.7,1.3-1.4,1.6-2.5h0Z"/>
        </g>
      </g>
    </g>
  </g>
</svg>